<?xml version="1.0" encoding="UTF-8" standalone="no"?>
<!-- Created with Inkscape (http://www.inkscape.org/) -->

<svg
   width="457.19995mm"
   height="41.223511mm"
   viewBox="0 0 457.19995 41.223511"
   version="1.1"
   id="svg1"
   xml:space="preserve"
   xmlns="http://www.w3.org/2000/svg"
   xmlns:svg="http://www.w3.org/2000/svg"><defs
     id="defs1"><clipPath
       clipPathUnits="userSpaceOnUse"
       id="clipPath2"><rect
         style="fill:#000000;stroke-width:1.13345"
         id="rect2"
         width="1727.9999"
         height="155.8054"
         x="5.8561648e-07"
         y="156.19499" /></clipPath></defs><g
     id="layer1"
     transform="translate(-7.4564073,-107.99952)"><g
       style="fill:none"
       id="g1"
       transform="matrix(0.26458333,0,0,0.26458333,7.4564074,66.672929)"
       clip-path="url(#clipPath2)"><path
         d="m 0,0 h 1728 v 99.5 c 0,0 0.03,106.871 0,106.892 -2.07,1.481 -3,-2.681 -6.5,-1.608 -4.11,1.258 0,13.979 -8,16.618 -8,2.639 -6.4,-23.916 -17.5,-22.515 -8.5,1.072 -9.5,38.061 -14.5,48.783 -2.85,6.115 -8.08,12.742 -15,9.65 -12,-5.361 -8.5,-14.716 -20.5,-58.433 -4.52,-16.482 -23.5,-32.114 -36.5,-29.965 -13,2.149 -23.73,9.835 -53.73,9.835 -20.11,0 -35.77,-8.099 -47.27,0 -9.66,6.804 -10.73,5.785 -30.73,46.858 -4.18,8.583 -18,9.041 -23.5,2.314 -14.71,-17.988 -18.77,-30.66 -28.77,-41.073 -2.5,-2.604 -10.23,-1.937 -13.73,0 -11.5,6.363 -31.5,9.834 -42.5,8.099 -23.22,-3.664 -44,-22.562 -55,-27.768 -9.63,-4.558 -28.5,-4.349 -34.5,-2.314 -29,9.834 -98.5,40.832 -150,32.974 -45.5,-6.942 -81.5,-37.024 -119,-33.553 -37.499,3.471 -68.999,28.39 -118.499,20.826 -16.866,-2.577 -45.14,-23.718 -51.5,-23.718 -6.361,0 -11.5,-0.579 -17.5,6.363 -10.5,12.149 -22.5,19.091 -33,17.355 -10.742,-1.775 -11.625,-9.834 -24,-16.198 -6.5,-3.342 -26.45,-3.471 -29,6.364 -3.78,14.577 -0.5,19.669 2,39.916 1.131,9.163 0.5,15.421 -6.5,23.14 -6.626,7.306 -26.868,16.514 -24,-1.735 2,-12.727 12.5,-48.016 9,-54.958 -3.343,-6.629 -7.5,-12.007 -15.5,-15.619 -14.5,-6.547 -44,-6.364 -55.5,-4.628 -26.268,3.964 -36.5,24.297 -64.5,24.297 -30,0 -77.5,-25.454 -100.5,-23.14 -39.698,3.993 -48.714,14.941 -95,18.512 -22.5,1.735 -57.5,-17.934 -75.5,-16.777 -9.603,0.617 -16,2.562 -23.5,7.521 -10.915,7.216 -11.5,8.677 -18.5,21.983 -7.571,14.389 2,68.262 -7,82.146 -7.508,11.581 -34,8.099 -36.5,-8.099 -2.5,-16.198 1.526,-55.55 -14.5,-60.742 -12.5,-4.05 -5,15.619 -24,26.032 -25.931,14.212 -36.271,-48.015 -51.5,-59.585 -4.769,-3.623 -17.663,2.821 -23.5,15.619 -12.4226,27.232 -3.947,64.826 0,81.569 4.5,19.091 6.5,50.33 -33.5005,38.76 -32.8024,-9.489 4.8276,-69.582 -7,-109.915 C 62.2705,167.187 45.7156,185.12 27.2656,185.12 11.7705,185.12 0,156.195 0,156.195 Z"
         fill="#373995"
         id="path1" /></g></g></svg>
